# xmcd
#
# Track frame offsets: 
#        175
#        10880
#        19300
#        30015
#        42558
#        53073
#        65050
#        73725
#        82968
#        94115
#        103360
#        111993
#        122278
#        134483
#        144843
#        155460
#        168618
#        179658
#        189785
#        202460
#        210703
#        220235
#        230890
#        240570
#        249238
#        260020
#        272203
#        283215
#        293035
#        301690
#
# Disc length: 4141 seconds
#
# Revision: 0
# Processed by: cddbd v1.5.1PL0 Copyright (c) Steve Scherf et al.
# Submitted via: ExactAudioCopy v0.95a4
#
DISCID=c7102b1e
DTITLE=Various Artist - Great Dixie Rock And Roll (2222)
DYEAR=1900
DGENRE=Country
TTITLE0=Howard Mayberry and Sangamon Boys - This Just Can't Be Puppy Lov
TTITLE0=e
TTITLE1=Ken Lightner and The Hay Riders - The Corner Of Love
TTITLE2=Jesie Floyd - Hangover Blues
TTITLE3=Tommy Nelson - Dangling On A String
TTITLE4=The Gentry Brothers - Swanky (Instr.)
TTITLE5=Jack Thomas and Bluegrass Band - If You Keep Doing
TTITLE6=Ray Hudson and Western Rhythmaires - The Blues Walked Away
TTITLE7=Eddy Reynolds - Teen Lover
TTITLE8=Unknown Artist - Good Lovin'
TTITLE9=The Gentry Brothers - Swooney (Instr.)
TTITLE10=Bill Willis - Poor Man
TTITLE11=Jimmie Lee and The Playboys - Three Little Wishes
TTITLE12=Cathy Kelley - Blues Hanging Around
TTITLE13=Unknown Artist - Let's Go, Let's Go, Let's Go
TTITLE14=Howard and The Darts - Oh My Love
TTITLE15=Eddie Skelton - Curley (Instr.)
TTITLE16=Jimmie Lee and Oak Valley Rangers - The Little Things You Do
TTITLE17=Pat and Dee - Gee Whiz
TTITLE18=Groovey Joe Poovey - Ten Long Fingers
TTITLE19=Watson Mishoe and Kenny and The Klovers - She Told A Lie
TTITLE20=Arvil Meers - The Future I Hold
TTITLE21=The Williams Brothers - Ali-Baba (Instr.)
TTITLE22=Jay Gallegher - Crazy Legs
TTITLE23=Art Ontario Buchanan - Hi Yo Silver
TTITLE24=Don Waynick and The Green Bullets - Telephone Boogie
TTITLE25=Derrell Felts and The Confederates - The Weepers
TTITLE26=Groovey Joe Poovey - Move Around
TTITLE27=Dee Johnson - I'm Your Guy
TTITLE28=Guy Gardner and His Country Four - High Society
TTITLE29=Jay Gallegher - Steady Flame
EXTD=
EXTT0=
EXTT1=
EXTT2=
EXTT3=
EXTT4=
EXTT5=
EXTT6=
EXTT7=
EXTT8=
EXTT9=
EXTT10=
EXTT11=
EXTT12=
EXTT13=
EXTT14=
EXTT15=
EXTT16=
EXTT17=
EXTT18=
EXTT19=
EXTT20=
EXTT21=
EXTT22=
EXTT23=
EXTT24=
EXTT25=
EXTT26=
EXTT27=
EXTT28=
EXTT29=
PLAYORDER=
